<svg xmlns="http://www.w3.org/2000/svg" xmlns:xlink="http://www.w3.org/1999/xlink" version="1.1" class="marks" width="641" height="465" viewBox="0 0 641 465"><rect width="641" height="465" fill="white"/><g fill="none" stroke-miterlimit="10" transform="translate(34,44)"><g class="mark-group role-frame root" role="graphics-object" aria-roledescription="group mark container"><g transform="translate(0,0)"><path class="background" aria-hidden="true" d="M0.5,0.5h600v400h-600Z" stroke="#ddd"/><g><g class="mark-group role-axis" aria-hidden="true"><g transform="translate(0.5,400.5)"><path class="background" aria-hidden="true" d="M0,0h0v0h0Z" pointer-events="none"/><g><g class="mark-rule role-axis-grid" pointer-events="none"><line transform="translate(0,-400)" x2="0" y2="400" stroke="#ddd" stroke-opacity="0" stroke-width="1" opacity="1"/><line transform="translate(46,-400)" x2="0" y2="400" stroke="#ddd" stroke-opacity="0" stroke-width="1" opacity="1"/><line transform="translate(92,-400)" x2="0" y2="400" stroke="#ddd" stroke-opacity="0" stroke-width="1" opacity="1"/><line transform="translate(138,-400)" x2="0" y2="400" stroke="#ddd" stroke-opacity="0" stroke-width="1" opacity="1"/><line transform="translate(185,-400)" x2="0" y2="400" stroke="#ddd" stroke-opacity="0" stroke-width="1" opacity="1"/><line transform="translate(231,-400)" x2="0" y2="400" stroke="#ddd" stroke-opacity="0" stroke-width="1" opacity="1"/><line transform="translate(277,-400)" x2="0" y2="400" stroke="#ddd" stroke-opacity="0" stroke-width="1" opacity="1"/><line transform="translate(323,-400)" x2="0" y2="400" stroke="#ddd" stroke-opacity="0" stroke-width="1" opacity="1"/><line transform="translate(369,-400)" x2="0" y2="400" stroke="#ddd" stroke-opacity="0" stroke-width="1" opacity="1"/><line transform="translate(415,-400)" x2="0" y2="400" stroke="#ddd" stroke-opacity="0" stroke-width="1" opacity="1"/><line transform="translate(462,-400)" x2="0" y2="400" stroke="#ddd" stroke-opacity="0" stroke-width="1" opacity="1"/><line transform="translate(508,-400)" x2="0" y2="400" stroke="#ddd" stroke-opacity="0" stroke-width="1" opacity="1"/><line transform="translate(554,-400)" x2="0" y2="400" stroke="#ddd" stroke-opacity="0" stroke-width="1" opacity="1"/><line transform="translate(600,-400)" x2="0" y2="400" stroke="#ddd" stroke-opacity="0" stroke-width="1" opacity="1"/></g></g><path class="foreground" aria-hidden="true" d="" pointer-events="none" display="none"/></g></g><g class="mark-group role-axis" aria-hidden="true"><g transform="translate(0.5,0.5)"><path class="background" aria-hidden="true" d="M0,0h0v0h0Z" pointer-events="none"/><g><g class="mark-rule role-axis-grid" pointer-events="none"><line transform="translate(0,400)" x2="600" y2="0" stroke="#ddd" stroke-opacity="0.6" stroke-width="1" opacity="1"/><line transform="translate(0,364)" x2="600" y2="0" stroke="#ddd" stroke-opacity="0.6" stroke-width="1" opacity="1"/><line transform="translate(0,327)" x2="600" y2="0" stroke="#ddd" stroke-opacity="0.6" stroke-width="1" opacity="1"/><line transform="translate(0,291)" x2="600" y2="0" stroke="#ddd" stroke-opacity="0.6" stroke-width="1" opacity="1"/><line transform="translate(0,255)" x2="600" y2="0" stroke="#ddd" stroke-opacity="0.6" stroke-width="1" opacity="1"/><line transform="translate(0,218)" x2="600" y2="0" stroke="#ddd" stroke-opacity="0.6" stroke-width="1" opacity="1"/><line transform="translate(0,182)" x2="600" y2="0" stroke="#ddd" stroke-opacity="0.6" stroke-width="1" opacity="1"/><line transform="translate(0,145)" x2="600" y2="0" stroke="#ddd" stroke-opacity="0.6" stroke-width="1" opacity="1"/><line transform="translate(0,109)" x2="600" y2="0" stroke="#ddd" stroke-opacity="0.6" stroke-width="1" opacity="1"/><line transform="translate(0,73)" x2="600" y2="0" stroke="#ddd" stroke-opacity="0.6" stroke-width="1" opacity="1"/><line transform="translate(0,36)" x2="600" y2="0" stroke="#ddd" stroke-opacity="0.6" stroke-width="1" opacity="1"/><line transform="translate(0,0)" x2="600" y2="0" stroke="#ddd" stroke-opacity="0.6" stroke-width="1" opacity="1"/></g></g><path class="foreground" aria-hidden="true" d="" pointer-events="none" display="none"/></g></g><g class="mark-group role-axis" role="graphics-symbol" aria-roledescription="axis" aria-label="X-axis for a time scale with values from 1955 to 2020"><g transform="translate(0.5,400.5)"><path class="background" aria-hidden="true" d="M0,0h0v0h0Z" pointer-events="none"/><g><g class="mark-text role-axis-label" pointer-events="none"><text text-anchor="start" transform="translate(0,14)" font-family="sans-serif" font-size="10px" fill="#000" opacity="1">1955</text><text text-anchor="middle" transform="translate(46.14801398424666,14)" font-family="sans-serif" font-size="10px" fill="#000" opacity="1">1960</text><text text-anchor="middle" transform="translate(92.32130070342446,14)" font-family="sans-serif" font-size="10px" fill="#000" opacity="1">1965</text><text text-anchor="middle" transform="translate(138.46931468767113,14)" font-family="sans-serif" font-size="10px" fill="#000" opacity="1">1970</text><text text-anchor="middle" transform="translate(184.6173286719178,14)" font-family="sans-serif" font-size="10px" fill="#000" opacity="1">1975</text><text text-anchor="middle" transform="translate(230.76534265616445,14)" font-family="sans-serif" font-size="10px" fill="#000" opacity="1">1980</text><text text-anchor="middle" transform="translate(276.93862937534226,14)" font-family="sans-serif" font-size="10px" fill="#000" opacity="1">1985</text><text text-anchor="middle" transform="translate(323.0866433595889,14)" font-family="sans-serif" font-size="10px" fill="#000" opacity="1">1990</text><text text-anchor="middle" transform="translate(369.2346573438356,14)" font-family="sans-serif" font-size="10px" fill="#000" opacity="1">1995</text><text text-anchor="middle" transform="translate(415.3826713280822,14)" font-family="sans-serif" font-size="10px" fill="#000" opacity="1">2000</text><text text-anchor="middle" transform="translate(461.55595804726,14)" font-family="sans-serif" font-size="10px" fill="#000" opacity="1">2005</text><text text-anchor="middle" transform="translate(507.7039720315067,14)" font-family="sans-serif" font-size="10px" fill="#000" opacity="1">2010</text><text text-anchor="middle" transform="translate(553.8519860157534,14)" font-family="sans-serif" font-size="10px" fill="#000" opacity="1">2015</text><text text-anchor="end" transform="translate(600,14)" font-family="sans-serif" font-size="10px" fill="#000" opacity="1">2020</text></g><g class="mark-rule role-axis-domain" pointer-events="none"><line transform="translate(0,0)" x2="600" y2="0" stroke="#888" stroke-width="1" opacity="1"/></g></g><path class="foreground" aria-hidden="true" d="" pointer-events="none" display="none"/></g></g><g class="mark-group role-axis" role="graphics-symbol" aria-roledescription="axis" aria-label="Y-axis for a linear scale with values from 0.0% to 2.2%"><g transform="translate(0.5,0.5)"><path class="background" aria-hidden="true" d="M0,0h0v0h0Z" pointer-events="none"/><g><g class="mark-text role-axis-label" pointer-events="none"><text text-anchor="end" transform="translate(-6,403)" font-family="sans-serif" font-size="10px" fill="#000" opacity="1">0.0%</text><text text-anchor="end" transform="translate(-6,366.6363636363636)" font-family="sans-serif" font-size="10px" fill="#000" opacity="1">0.2%</text><text text-anchor="end" transform="translate(-6,330.27272727272725)" font-family="sans-serif" font-size="10px" fill="#000" opacity="1">0.4%</text><text text-anchor="end" transform="translate(-6,293.90909090909093)" font-family="sans-serif" font-size="10px" fill="#000" opacity="1">0.6%</text><text text-anchor="end" transform="translate(-6,257.5454545454545)" font-family="sans-serif" font-size="10px" fill="#000" opacity="1">0.8%</text><text text-anchor="end" transform="translate(-6,221.18181818181816)" font-family="sans-serif" font-size="10px" fill="#000" opacity="1">1.0%</text><text text-anchor="end" transform="translate(-6,184.81818181818178)" font-family="sans-serif" font-size="10px" fill="#000" opacity="1">1.2%</text><text text-anchor="end" transform="translate(-6,148.4545454545454)" font-family="sans-serif" font-size="10px" fill="#000" opacity="1">1.4%</text><text text-anchor="end" transform="translate(-6,112.09090909090908)" font-family="sans-serif" font-size="10px" fill="#000" opacity="1">1.6%</text><text text-anchor="end" transform="translate(-6,75.72727272727275)" font-family="sans-serif" font-size="10px" fill="#000" opacity="1">1.8%</text><text text-anchor="end" transform="translate(-6,39.36363636363633)" font-family="sans-serif" font-size="10px" fill="#000" opacity="1">2.0%</text><text text-anchor="end" transform="translate(-6,3)" font-family="sans-serif" font-size="10px" fill="#000" opacity="1">2.2%</text></g><g class="mark-rule role-axis-domain" pointer-events="none"><line transform="translate(0,400)" x2="0" y2="-400" stroke="#888" stroke-width="1" opacity="1"/></g></g><path class="foreground" aria-hidden="true" d="" pointer-events="none" display="none"/></g></g><g class="mark-group role-scope pathgroup" role="graphics-object" aria-roledescription="group mark container"><g transform="translate(0,0)"><path class="background" aria-hidden="true" d="M0,0h600v400h-600Z"/><g><g class="mark-line role-mark marks" role="graphics-object" aria-roledescription="line mark container"><path aria-label="Year: 1955; Value: 0.6%; Source: NCES (incl. R&amp;D Plant)" role="graphics-symbol" aria-roledescription="line mark" d="M0,294.634L9.225,282.016L18.474,249.45L27.699,233.67L36.923,169.752L46.148,145.817L55.398,116.318L64.622,94.436L73.847,52.594L83.071,29.099L92.321,55.753L101.546,65.733L110.77,59.049L119.995,100.967L129.245,126.068L138.469,143.81L147.694,162.58L156.918,174.305L166.168,193.093L175.393,202.119L184.617,203.521L193.842,204.672L203.092,202.999L212.316,209.326L221.541,211.713L230.765,218.892L240.015,213.046L249.24,207.017L258.464,214.248L267.689,206.224L276.939,195.901L286.163,192.134L295.388,192.808L304.612,200.972L313.862,203.495L323.087,206.877L332.311,208.742L341.536,213.855L350.786,218.839L360.01,233.356L369.235,239.082L378.459,248.006L387.709,251.381L396.934,256.077L406.158,257.418L415.383,254.38L424.632,243.935L433.857,230.604L443.082,217.653L452.306,216.734L461.556,220.888L470.781,223.85L480.005,224.682L489.23,220.287L498.479,196.118L507.704,223.09L516.929,234.299L526.153,240.844L535.403,259.414L544.627,261.33L553.852,262.592L563.077,255.841L572.326,283.655L581.551,273.842L590.775,274.381L600,257.676" stroke="#4c78a8" stroke-width="2"/></g></g><path class="foreground" aria-hidden="true" d="" display="none"/></g></g><g class="mark-group role-title"><g transform="translate(-28.79296875,-39)"><path class="background" aria-hidden="true" d="M0,0h0v0h0Z" pointer-events="none"/><g><g class="mark-text role-title-text" role="graphics-symbol" aria-roledescription="title" aria-label="Title text 'US Federal R&amp;D Spending as a Percentage of GDP'" pointer-events="none"><text text-anchor="start" transform="translate(0,13)" font-family="Arial" font-size="16px" font-weight="bold" fill="#000" opacity="1">US Federal R&amp;D Spending as a Percentage of GDP</text></g><g class="mark-text role-title-subtitle" role="graphics-symbol" aria-roledescription="subtitle" aria-label="Subtitle text 'Includes R&amp;D Plant Funding, Source: NCSES'" pointer-events="none"><text text-anchor="start" transform="translate(0,28)" font-family="sans-serif" font-size="12px" fill="#000" opacity="1">Includes R&amp;D Plant Funding, Source: NCSES</text></g></g><path class="foreground" aria-hidden="true" d="" pointer-events="none" display="none"/></g></g></g><path class="foreground" aria-hidden="true" d="" display="none"/></g></g></g></svg>