<svg xmlns="http://www.w3.org/2000/svg" xmlns:xlink="http://www.w3.org/1999/xlink" version="1.1" class="marks" width="641" height="465" viewBox="0 0 641 465"><rect width="641" height="465" fill="white"/><g fill="none" stroke-miterlimit="10" transform="translate(34,44)"><g class="mark-group role-frame root" role="graphics-object" aria-roledescription="group mark container"><g transform="translate(0,0)"><path class="background" aria-hidden="true" d="M0.5,0.5h600v400h-600Z" stroke="#ddd"/><g><g class="mark-group role-axis" aria-hidden="true"><g transform="translate(0.5,400.5)"><path class="background" aria-hidden="true" d="M0,0h0v0h0Z" pointer-events="none"/><g><g class="mark-rule role-axis-grid" pointer-events="none"><line transform="translate(0,-400)" x2="0" y2="400" stroke="#ddd" stroke-opacity="0" stroke-width="1" opacity="1"/><line transform="translate(50,-400)" x2="0" y2="400" stroke="#ddd" stroke-opacity="0" stroke-width="1" opacity="1"/><line transform="translate(100,-400)" x2="0" y2="400" stroke="#ddd" stroke-opacity="0" stroke-width="1" opacity="1"/><line transform="translate(150,-400)" x2="0" y2="400" stroke="#ddd" stroke-opacity="0" stroke-width="1" opacity="1"/><line transform="translate(200,-400)" x2="0" y2="400" stroke="#ddd" stroke-opacity="0" stroke-width="1" opacity="1"/><line transform="translate(250,-400)" x2="0" y2="400" stroke="#ddd" stroke-opacity="0" stroke-width="1" opacity="1"/><line transform="translate(300,-400)" x2="0" y2="400" stroke="#ddd" stroke-opacity="0" stroke-width="1" opacity="1"/><line transform="translate(350,-400)" x2="0" y2="400" stroke="#ddd" stroke-opacity="0" stroke-width="1" opacity="1"/><line transform="translate(400,-400)" x2="0" y2="400" stroke="#ddd" stroke-opacity="0" stroke-width="1" opacity="1"/><line transform="translate(450,-400)" x2="0" y2="400" stroke="#ddd" stroke-opacity="0" stroke-width="1" opacity="1"/><line transform="translate(500,-400)" x2="0" y2="400" stroke="#ddd" stroke-opacity="0" stroke-width="1" opacity="1"/><line transform="translate(550,-400)" x2="0" y2="400" stroke="#ddd" stroke-opacity="0" stroke-width="1" opacity="1"/><line transform="translate(600,-400)" x2="0" y2="400" stroke="#ddd" stroke-opacity="0" stroke-width="1" opacity="1"/></g></g><path class="foreground" aria-hidden="true" d="" pointer-events="none" display="none"/></g></g><g class="mark-group role-axis" aria-hidden="true"><g transform="translate(0.5,0.5)"><path class="background" aria-hidden="true" d="M0,0h0v0h0Z" pointer-events="none"/><g><g class="mark-rule role-axis-grid" pointer-events="none"><line transform="translate(0,400)" x2="600" y2="0" stroke="#ddd" stroke-opacity="0.6" stroke-width="1" opacity="1"/><line transform="translate(0,356)" x2="600" y2="0" stroke="#ddd" stroke-opacity="0.6" stroke-width="1" opacity="1"/><line transform="translate(0,311)" x2="600" y2="0" stroke="#ddd" stroke-opacity="0.6" stroke-width="1" opacity="1"/><line transform="translate(0,267)" x2="600" y2="0" stroke="#ddd" stroke-opacity="0.6" stroke-width="1" opacity="1"/><line transform="translate(0,222)" x2="600" y2="0" stroke="#ddd" stroke-opacity="0.6" stroke-width="1" opacity="1"/><line transform="translate(0,178)" x2="600" y2="0" stroke="#ddd" stroke-opacity="0.6" stroke-width="1" opacity="1"/><line transform="translate(0,133)" x2="600" y2="0" stroke="#ddd" stroke-opacity="0.6" stroke-width="1" opacity="1"/><line transform="translate(0,89)" x2="600" y2="0" stroke="#ddd" stroke-opacity="0.6" stroke-width="1" opacity="1"/><line transform="translate(0,44)" x2="600" y2="0" stroke="#ddd" stroke-opacity="0.6" stroke-width="1" opacity="1"/><line transform="translate(0,0)" x2="600" y2="0" stroke="#ddd" stroke-opacity="0.6" stroke-width="1" opacity="1"/></g></g><path class="foreground" aria-hidden="true" d="" pointer-events="none" display="none"/></g></g><g class="mark-group role-axis" role="graphics-symbol" aria-roledescription="axis" aria-label="X-axis for a time scale with values from 1960 to 2020"><g transform="translate(0.5,400.5)"><path class="background" aria-hidden="true" d="M0,0h0v0h0Z" pointer-events="none"/><g><g class="mark-text role-axis-label" pointer-events="none"><text text-anchor="start" transform="translate(0,14)" font-family="sans-serif" font-size="10px" fill="#000" opacity="1">1960</text><text text-anchor="middle" transform="translate(50.02053388090349,14)" font-family="sans-serif" font-size="10px" fill="#000" opacity="1">1965</text><text text-anchor="middle" transform="translate(100.01254848277435,14)" font-family="sans-serif" font-size="10px" fill="#000" opacity="1">1970</text><text text-anchor="middle" transform="translate(150.00684462696785,14)" font-family="sans-serif" font-size="10px" fill="#000" opacity="1">1975</text><text text-anchor="middle" transform="translate(200,14)" font-family="sans-serif" font-size="10px" fill="#000" opacity="1">1980</text><text text-anchor="middle" transform="translate(250.02053388090349,14)" font-family="sans-serif" font-size="10px" fill="#000" opacity="1">1985</text><text text-anchor="middle" transform="translate(300.0136892539357,14)" font-family="sans-serif" font-size="10px" fill="#000" opacity="1">1990</text><text text-anchor="middle" transform="translate(350.00684462696785,14)" font-family="sans-serif" font-size="10px" fill="#000" opacity="1">1995</text><text text-anchor="middle" transform="translate(400,14)" font-family="sans-serif" font-size="10px" fill="#000" opacity="1">2000</text><text text-anchor="middle" transform="translate(450.0205338809035,14)" font-family="sans-serif" font-size="10px" fill="#000" opacity="1">2005</text><text text-anchor="middle" transform="translate(500.01368925393564,14)" font-family="sans-serif" font-size="10px" fill="#000" opacity="1">2010</text><text text-anchor="middle" transform="translate(550.0068446269679,14)" font-family="sans-serif" font-size="10px" fill="#000" opacity="1">2015</text><text text-anchor="end" transform="translate(600,14)" font-family="sans-serif" font-size="10px" fill="#000" opacity="1">2020</text></g><g class="mark-rule role-axis-domain" pointer-events="none"><line transform="translate(0,0)" x2="600" y2="0" stroke="#888" stroke-width="1" opacity="1"/></g></g><path class="foreground" aria-hidden="true" d="" pointer-events="none" display="none"/></g></g><g class="mark-group role-axis" role="graphics-symbol" aria-roledescription="axis" aria-label="Y-axis for a linear scale with values from 0.0% to 4.5%"><g transform="translate(0.5,0.5)"><path class="background" aria-hidden="true" d="M0,0h0v0h0Z" pointer-events="none"/><g><g class="mark-text role-axis-label" pointer-events="none"><text text-anchor="end" transform="translate(-6,403)" font-family="sans-serif" font-size="10px" fill="#000" opacity="1">0.0%</text><text text-anchor="end" transform="translate(-6,358.55555555555554)" font-family="sans-serif" font-size="10px" fill="#000" opacity="1">0.5%</text><text text-anchor="end" transform="translate(-6,314.11111111111114)" font-family="sans-serif" font-size="10px" fill="#000" opacity="1">1.0%</text><text text-anchor="end" transform="translate(-6,269.6666666666667)" font-family="sans-serif" font-size="10px" fill="#000" opacity="1">1.5%</text><text text-anchor="end" transform="translate(-6,225.22222222222223)" font-family="sans-serif" font-size="10px" fill="#000" opacity="1">2.0%</text><text text-anchor="end" transform="translate(-6,180.77777777777777)" font-family="sans-serif" font-size="10px" fill="#000" opacity="1">2.5%</text><text text-anchor="end" transform="translate(-6,136.33333333333334)" font-family="sans-serif" font-size="10px" fill="#000" opacity="1">3.0%</text><text text-anchor="end" transform="translate(-6,91.88888888888884)" font-family="sans-serif" font-size="10px" fill="#000" opacity="1">3.5%</text><text text-anchor="end" transform="translate(-6,47.44444444444442)" font-family="sans-serif" font-size="10px" fill="#000" opacity="1">4.0%</text><text text-anchor="end" transform="translate(-6,3)" font-family="sans-serif" font-size="10px" fill="#000" opacity="1">4.5%</text></g><g class="mark-rule role-axis-domain" pointer-events="none"><line transform="translate(0,400)" x2="0" y2="-400" stroke="#888" stroke-width="1" opacity="1"/></g></g><path class="foreground" aria-hidden="true" d="" pointer-events="none" display="none"/></g></g><g class="mark-group role-scope pathgroup" role="graphics-object" aria-roledescription="group mark container"><g transform="translate(0,0)"><path class="background" aria-hidden="true" d="M0,0h600v400h-600Z"/><g><g class="mark-line role-mark marks" role="graphics-object" aria-roledescription="line mark container"><path aria-label="Year: 1960; Value: 3.7%; Source: AAAS" role="graphics-symbol" aria-roledescription="line mark" d="M0,74.418L10.021,48.105L20.014,59.193L30.007,33.921L40,13.752L50.021,41.432L60.014,70.62L70.007,80.219L80,114.235L90.019,129.821L100.013,139.951L110.006,161.152L120,178.318L130.021,205.431L140.014,222.25L150.007,236.456L160,247.693L170.021,261.233L180.014,269.214L190.007,282.602L200,293.295L210.021,304.931L220.014,307.224L230.007,307.541L240,311.059L250.021,311.91L260.014,315.374L270.007,320.177L280,324.461L290.021,328.783L300.014,332.772L310.007,337.499L320,340.153L330.021,343.752L340.014,347.915L350.007,349.969L360,353.976L370.021,357.201L380.014,358.904L390.007,360.404L400,361.331L410.021,357.831L420.014,356.598L430.007,357.333L440,360.554L450.021,362.362L460.014,363.774L470.007,364.264L480,364.355L490.021,362.412L500.014,361.817L510.007,361.968L520,365.096L530.021,367.537L540.014,368.557L550.007,369.978L560,371.975L570.021,372.937L580.014,372.184L590.007,371.716L600,370.092" stroke="#4c78a8" stroke-width="2"/></g></g><path class="foreground" aria-hidden="true" d="" display="none"/></g></g><g class="mark-group role-title"><g transform="translate(-28.79296875,-39)"><path class="background" aria-hidden="true" d="M0,0h0v0h0Z" pointer-events="none"/><g><g class="mark-text role-title-text" role="graphics-symbol" aria-roledescription="title" aria-label="Title text 'US Federal R&amp;D Spending as a Percentage of GDP'" pointer-events="none"><text text-anchor="start" transform="translate(0,13)" font-family="Arial" font-size="16px" font-weight="bold" fill="#000" opacity="1">US Federal R&amp;D Spending as a Percentage of GDP</text></g><g class="mark-text role-title-subtitle" role="graphics-symbol" aria-roledescription="subtitle" aria-label="Subtitle text 'Source: AAAS'" pointer-events="none"><text text-anchor="start" transform="translate(0,28)" font-family="sans-serif" font-size="12px" fill="#000" opacity="1">Source: AAAS</text></g></g><path class="foreground" aria-hidden="true" d="" pointer-events="none" display="none"/></g></g></g><path class="foreground" aria-hidden="true" d="" display="none"/></g></g></g></svg>