<svg xmlns="http://www.w3.org/2000/svg" xmlns:xlink="http://www.w3.org/1999/xlink" version="1.1" class="marks" width="641" height="465" viewBox="0 0 641 465"><rect width="641" height="465" fill="white"/><g fill="none" stroke-miterlimit="10" transform="translate(34,44)"><g class="mark-group role-frame root" role="graphics-object" aria-roledescription="group mark container"><g transform="translate(0,0)"><path class="background" aria-hidden="true" d="M0.5,0.5h600v400h-600Z" stroke="#ddd"/><g><g class="mark-group role-axis" aria-hidden="true"><g transform="translate(0.5,400.5)"><path class="background" aria-hidden="true" d="M0,0h0v0h0Z" pointer-events="none"/><g><g class="mark-rule role-axis-grid" pointer-events="none"><line transform="translate(0,-400)" x2="0" y2="400" stroke="#ddd" stroke-opacity="0" stroke-width="1" opacity="1"/><line transform="translate(46,-400)" x2="0" y2="400" stroke="#ddd" stroke-opacity="0" stroke-width="1" opacity="1"/><line transform="translate(92,-400)" x2="0" y2="400" stroke="#ddd" stroke-opacity="0" stroke-width="1" opacity="1"/><line transform="translate(138,-400)" x2="0" y2="400" stroke="#ddd" stroke-opacity="0" stroke-width="1" opacity="1"/><line transform="translate(185,-400)" x2="0" y2="400" stroke="#ddd" stroke-opacity="0" stroke-width="1" opacity="1"/><line transform="translate(231,-400)" x2="0" y2="400" stroke="#ddd" stroke-opacity="0" stroke-width="1" opacity="1"/><line transform="translate(277,-400)" x2="0" y2="400" stroke="#ddd" stroke-opacity="0" stroke-width="1" opacity="1"/><line transform="translate(323,-400)" x2="0" y2="400" stroke="#ddd" stroke-opacity="0" stroke-width="1" opacity="1"/><line transform="translate(369,-400)" x2="0" y2="400" stroke="#ddd" stroke-opacity="0" stroke-width="1" opacity="1"/><line transform="translate(415,-400)" x2="0" y2="400" stroke="#ddd" stroke-opacity="0" stroke-width="1" opacity="1"/><line transform="translate(462,-400)" x2="0" y2="400" stroke="#ddd" stroke-opacity="0" stroke-width="1" opacity="1"/><line transform="translate(508,-400)" x2="0" y2="400" stroke="#ddd" stroke-opacity="0" stroke-width="1" opacity="1"/><line transform="translate(554,-400)" x2="0" y2="400" stroke="#ddd" stroke-opacity="0" stroke-width="1" opacity="1"/><line transform="translate(600,-400)" x2="0" y2="400" stroke="#ddd" stroke-opacity="0" stroke-width="1" opacity="1"/></g></g><path class="foreground" aria-hidden="true" d="" pointer-events="none" display="none"/></g></g><g class="mark-group role-axis" aria-hidden="true"><g transform="translate(0.5,0.5)"><path class="background" aria-hidden="true" d="M0,0h0v0h0Z" pointer-events="none"/><g><g class="mark-rule role-axis-grid" pointer-events="none"><line transform="translate(0,400)" x2="600" y2="0" stroke="#ddd" stroke-opacity="0.6" stroke-width="1" opacity="1"/><line transform="translate(0,360)" x2="600" y2="0" stroke="#ddd" stroke-opacity="0.6" stroke-width="1" opacity="1"/><line transform="translate(0,320)" x2="600" y2="0" stroke="#ddd" stroke-opacity="0.6" stroke-width="1" opacity="1"/><line transform="translate(0,280)" x2="600" y2="0" stroke="#ddd" stroke-opacity="0.6" stroke-width="1" opacity="1"/><line transform="translate(0,240)" x2="600" y2="0" stroke="#ddd" stroke-opacity="0.6" stroke-width="1" opacity="1"/><line transform="translate(0,200)" x2="600" y2="0" stroke="#ddd" stroke-opacity="0.6" stroke-width="1" opacity="1"/><line transform="translate(0,160)" x2="600" y2="0" stroke="#ddd" stroke-opacity="0.6" stroke-width="1" opacity="1"/><line transform="translate(0,120)" x2="600" y2="0" stroke="#ddd" stroke-opacity="0.6" stroke-width="1" opacity="1"/><line transform="translate(0,80)" x2="600" y2="0" stroke="#ddd" stroke-opacity="0.6" stroke-width="1" opacity="1"/><line transform="translate(0,40)" x2="600" y2="0" stroke="#ddd" stroke-opacity="0.6" stroke-width="1" opacity="1"/><line transform="translate(0,0)" x2="600" y2="0" stroke="#ddd" stroke-opacity="0.6" stroke-width="1" opacity="1"/></g></g><path class="foreground" aria-hidden="true" d="" pointer-events="none" display="none"/></g></g><g class="mark-group role-axis" role="graphics-symbol" aria-roledescription="axis" aria-label="X-axis for a time scale with values from 1955 to 2020"><g transform="translate(0.5,400.5)"><path class="background" aria-hidden="true" d="M0,0h0v0h0Z" pointer-events="none"/><g><g class="mark-text role-axis-label" pointer-events="none"><text text-anchor="start" transform="translate(0,14)" font-family="sans-serif" font-size="10px" fill="#000" opacity="1">1955</text><text text-anchor="middle" transform="translate(46.14801398424666,14)" font-family="sans-serif" font-size="10px" fill="#000" opacity="1">1960</text><text text-anchor="middle" transform="translate(92.32130070342446,14)" font-family="sans-serif" font-size="10px" fill="#000" opacity="1">1965</text><text text-anchor="middle" transform="translate(138.46931468767113,14)" font-family="sans-serif" font-size="10px" fill="#000" opacity="1">1970</text><text text-anchor="middle" transform="translate(184.6173286719178,14)" font-family="sans-serif" font-size="10px" fill="#000" opacity="1">1975</text><text text-anchor="middle" transform="translate(230.76534265616445,14)" font-family="sans-serif" font-size="10px" fill="#000" opacity="1">1980</text><text text-anchor="middle" transform="translate(276.93862937534226,14)" font-family="sans-serif" font-size="10px" fill="#000" opacity="1">1985</text><text text-anchor="middle" transform="translate(323.0866433595889,14)" font-family="sans-serif" font-size="10px" fill="#000" opacity="1">1990</text><text text-anchor="middle" transform="translate(369.2346573438356,14)" font-family="sans-serif" font-size="10px" fill="#000" opacity="1">1995</text><text text-anchor="middle" transform="translate(415.3826713280822,14)" font-family="sans-serif" font-size="10px" fill="#000" opacity="1">2000</text><text text-anchor="middle" transform="translate(461.55595804726,14)" font-family="sans-serif" font-size="10px" fill="#000" opacity="1">2005</text><text text-anchor="middle" transform="translate(507.7039720315067,14)" font-family="sans-serif" font-size="10px" fill="#000" opacity="1">2010</text><text text-anchor="middle" transform="translate(553.8519860157534,14)" font-family="sans-serif" font-size="10px" fill="#000" opacity="1">2015</text><text text-anchor="end" transform="translate(600,14)" font-family="sans-serif" font-size="10px" fill="#000" opacity="1">2020</text></g><g class="mark-rule role-axis-domain" pointer-events="none"><line transform="translate(0,0)" x2="600" y2="0" stroke="#888" stroke-width="1" opacity="1"/></g></g><path class="foreground" aria-hidden="true" d="" pointer-events="none" display="none"/></g></g><g class="mark-group role-axis" role="graphics-symbol" aria-roledescription="axis" aria-label="Y-axis for a linear scale with values from 0.0% to 2.0%"><g transform="translate(0.5,0.5)"><path class="background" aria-hidden="true" d="M0,0h0v0h0Z" pointer-events="none"/><g><g class="mark-text role-axis-label" pointer-events="none"><text text-anchor="end" transform="translate(-6,403)" font-family="sans-serif" font-size="10px" fill="#000" opacity="1">0.0%</text><text text-anchor="end" transform="translate(-6,363)" font-family="sans-serif" font-size="10px" fill="#000" opacity="1">0.2%</text><text text-anchor="end" transform="translate(-6,323)" font-family="sans-serif" font-size="10px" fill="#000" opacity="1">0.4%</text><text text-anchor="end" transform="translate(-6,283)" font-family="sans-serif" font-size="10px" fill="#000" opacity="1">0.6%</text><text text-anchor="end" transform="translate(-6,243)" font-family="sans-serif" font-size="10px" fill="#000" opacity="1">0.8%</text><text text-anchor="end" transform="translate(-6,203)" font-family="sans-serif" font-size="10px" fill="#000" opacity="1">1.0%</text><text text-anchor="end" transform="translate(-6,163)" font-family="sans-serif" font-size="10px" fill="#000" opacity="1">1.2%</text><text text-anchor="end" transform="translate(-6,123.00000000000001)" font-family="sans-serif" font-size="10px" fill="#000" opacity="1">1.4%</text><text text-anchor="end" transform="translate(-6,82.99999999999999)" font-family="sans-serif" font-size="10px" fill="#000" opacity="1">1.6%</text><text text-anchor="end" transform="translate(-6,43.000000000000036)" font-family="sans-serif" font-size="10px" fill="#000" opacity="1">1.8%</text><text text-anchor="end" transform="translate(-6,3)" font-family="sans-serif" font-size="10px" fill="#000" opacity="1">2.0%</text></g><g class="mark-rule role-axis-domain" pointer-events="none"><line transform="translate(0,400)" x2="0" y2="-400" stroke="#888" stroke-width="1" opacity="1"/></g></g><path class="foreground" aria-hidden="true" d="" pointer-events="none" display="none"/></g></g><g class="mark-group role-scope pathgroup" role="graphics-object" aria-roledescription="group mark container"><g transform="translate(0,0)"><path class="background" aria-hidden="true" d="M0,0h600v400h-600Z"/><g><g class="mark-line role-mark marks" role="graphics-object" aria-roledescription="line mark container"><path aria-label="Year: 1955; Value: 0.8%; Source: NCSES" role="graphics-symbol" aria-roledescription="line mark" d="M0,236L9.225,178L18.474,138L27.699,110L36.923,86L46.148,72L55.398,62L64.622,64L73.847,34L83.071,28L92.321,44L101.546,52L110.77,62L119.995,82L129.245,100L138.469,120L147.694,138L156.918,150L166.168,168L175.393,176L184.617,180L193.842,184L203.092,188L212.316,192L221.541,192L230.765,190L240.015,190L249.24,178L258.464,172L267.689,170L276.939,158L286.163,162L295.388,158L304.612,170L313.862,186L323.087,194L332.311,202L341.536,214L350.786,224L360.01,234L369.235,236L378.459,242L387.709,250L396.934,254L406.158,262L415.383,268L424.632,260L433.857,256L443.082,252L452.306,252L461.556,254L470.781,256L480.005,254L489.23,240L498.479,226L507.704,232L516.929,238L526.153,248L535.403,258L544.627,266L553.852,268L563.077,274L572.326,274L581.551,272L590.775,272L600,260" stroke="#4c78a8" stroke-width="2"/></g></g><path class="foreground" aria-hidden="true" d="" display="none"/></g></g><g class="mark-group role-title"><g transform="translate(-28.79296875,-39)"><path class="background" aria-hidden="true" d="M0,0h0v0h0Z" pointer-events="none"/><g><g class="mark-text role-title-text" role="graphics-symbol" aria-roledescription="title" aria-label="Title text 'US Federal R&amp;D Spending as a Percentage of GDP'" pointer-events="none"><text text-anchor="start" transform="translate(0,13)" font-family="Arial" font-size="16px" font-weight="bold" fill="#000" opacity="1">US Federal R&amp;D Spending as a Percentage of GDP</text></g><g class="mark-text role-title-subtitle" role="graphics-symbol" aria-roledescription="subtitle" aria-label="Subtitle text 'Source: NCSES'" pointer-events="none"><text text-anchor="start" transform="translate(0,28)" font-family="sans-serif" font-size="12px" fill="#000" opacity="1">Source: NCSES</text></g></g><path class="foreground" aria-hidden="true" d="" pointer-events="none" display="none"/></g></g></g><path class="foreground" aria-hidden="true" d="" display="none"/></g></g></g></svg>