<svg xmlns="http://www.w3.org/2000/svg" xmlns:xlink="http://www.w3.org/1999/xlink" version="1.1" class="marks" width="642" height="480" viewBox="0 0 642 480"><rect width="642" height="480" fill="white"/><g fill="none" stroke-miterlimit="10" transform="translate(35,59)"><g class="mark-group role-frame root" role="graphics-object" aria-roledescription="group mark container"><g transform="translate(0,0)"><path class="background" aria-hidden="true" d="M0.5,0.5h600v400h-600Z" stroke="#ddd"/><g><g class="mark-group role-axis" aria-hidden="true"><g transform="translate(0.5,400.5)"><path class="background" aria-hidden="true" d="M0,0h0v0h0Z" pointer-events="none"/><g><g class="mark-rule role-axis-grid" pointer-events="none"><line transform="translate(0,-400)" x2="0" y2="400" stroke="#ddd" stroke-opacity="0" stroke-width="1" opacity="1"/><line transform="translate(46,-400)" x2="0" y2="400" stroke="#ddd" stroke-opacity="0" stroke-width="1" opacity="1"/><line transform="translate(92,-400)" x2="0" y2="400" stroke="#ddd" stroke-opacity="0" stroke-width="1" opacity="1"/><line transform="translate(138,-400)" x2="0" y2="400" stroke="#ddd" stroke-opacity="0" stroke-width="1" opacity="1"/><line transform="translate(185,-400)" x2="0" y2="400" stroke="#ddd" stroke-opacity="0" stroke-width="1" opacity="1"/><line transform="translate(231,-400)" x2="0" y2="400" stroke="#ddd" stroke-opacity="0" stroke-width="1" opacity="1"/><line transform="translate(277,-400)" x2="0" y2="400" stroke="#ddd" stroke-opacity="0" stroke-width="1" opacity="1"/><line transform="translate(323,-400)" x2="0" y2="400" stroke="#ddd" stroke-opacity="0" stroke-width="1" opacity="1"/><line transform="translate(369,-400)" x2="0" y2="400" stroke="#ddd" stroke-opacity="0" stroke-width="1" opacity="1"/><line transform="translate(415,-400)" x2="0" y2="400" stroke="#ddd" stroke-opacity="0" stroke-width="1" opacity="1"/><line transform="translate(462,-400)" x2="0" y2="400" stroke="#ddd" stroke-opacity="0" stroke-width="1" opacity="1"/><line transform="translate(508,-400)" x2="0" y2="400" stroke="#ddd" stroke-opacity="0" stroke-width="1" opacity="1"/><line transform="translate(554,-400)" x2="0" y2="400" stroke="#ddd" stroke-opacity="0" stroke-width="1" opacity="1"/><line transform="translate(600,-400)" x2="0" y2="400" stroke="#ddd" stroke-opacity="0" stroke-width="1" opacity="1"/></g></g><path class="foreground" aria-hidden="true" d="" pointer-events="none" display="none"/></g></g><g class="mark-group role-axis" aria-hidden="true"><g transform="translate(0.5,0.5)"><path class="background" aria-hidden="true" d="M0,0h0v0h0Z" pointer-events="none"/><g><g class="mark-rule role-axis-grid" pointer-events="none"><line transform="translate(0,400)" x2="600" y2="0" stroke="#ddd" stroke-opacity="0.6" stroke-width="1" opacity="1"/><line transform="translate(0,356)" x2="600" y2="0" stroke="#ddd" stroke-opacity="0.6" stroke-width="1" opacity="1"/><line transform="translate(0,311)" x2="600" y2="0" stroke="#ddd" stroke-opacity="0.6" stroke-width="1" opacity="1"/><line transform="translate(0,267)" x2="600" y2="0" stroke="#ddd" stroke-opacity="0.6" stroke-width="1" opacity="1"/><line transform="translate(0,222)" x2="600" y2="0" stroke="#ddd" stroke-opacity="0.6" stroke-width="1" opacity="1"/><line transform="translate(0,178)" x2="600" y2="0" stroke="#ddd" stroke-opacity="0.6" stroke-width="1" opacity="1"/><line transform="translate(0,133)" x2="600" y2="0" stroke="#ddd" stroke-opacity="0.6" stroke-width="1" opacity="1"/><line transform="translate(0,89)" x2="600" y2="0" stroke="#ddd" stroke-opacity="0.6" stroke-width="1" opacity="1"/><line transform="translate(0,44)" x2="600" y2="0" stroke="#ddd" stroke-opacity="0.6" stroke-width="1" opacity="1"/><line transform="translate(0,0)" x2="600" y2="0" stroke="#ddd" stroke-opacity="0.6" stroke-width="1" opacity="1"/></g></g><path class="foreground" aria-hidden="true" d="" pointer-events="none" display="none"/></g></g><g class="mark-group role-axis" role="graphics-symbol" aria-roledescription="axis" aria-label="X-axis for a time scale with values from 1955 to 2020"><g transform="translate(0.5,400.5)"><path class="background" aria-hidden="true" d="M0,0h0v0h0Z" pointer-events="none"/><g><g class="mark-text role-axis-label" pointer-events="none"><text text-anchor="start" transform="translate(0,14)" font-family="sans-serif" font-size="10px" fill="#000" opacity="1">1955</text><text text-anchor="middle" transform="translate(46.14801398424666,14)" font-family="sans-serif" font-size="10px" fill="#000" opacity="1">1960</text><text text-anchor="middle" transform="translate(92.32130070342446,14)" font-family="sans-serif" font-size="10px" fill="#000" opacity="1">1965</text><text text-anchor="middle" transform="translate(138.46931468767113,14)" font-family="sans-serif" font-size="10px" fill="#000" opacity="1">1970</text><text text-anchor="middle" transform="translate(184.6173286719178,14)" font-family="sans-serif" font-size="10px" fill="#000" opacity="1">1975</text><text text-anchor="middle" transform="translate(230.76534265616445,14)" font-family="sans-serif" font-size="10px" fill="#000" opacity="1">1980</text><text text-anchor="middle" transform="translate(276.93862937534226,14)" font-family="sans-serif" font-size="10px" fill="#000" opacity="1">1985</text><text text-anchor="middle" transform="translate(323.0866433595889,14)" font-family="sans-serif" font-size="10px" fill="#000" opacity="1">1990</text><text text-anchor="middle" transform="translate(369.2346573438356,14)" font-family="sans-serif" font-size="10px" fill="#000" opacity="1">1995</text><text text-anchor="middle" transform="translate(415.3826713280822,14)" font-family="sans-serif" font-size="10px" fill="#000" opacity="1">2000</text><text text-anchor="middle" transform="translate(461.55595804726,14)" font-family="sans-serif" font-size="10px" fill="#000" opacity="1">2005</text><text text-anchor="middle" transform="translate(507.7039720315067,14)" font-family="sans-serif" font-size="10px" fill="#000" opacity="1">2010</text><text text-anchor="middle" transform="translate(553.8519860157534,14)" font-family="sans-serif" font-size="10px" fill="#000" opacity="1">2015</text><text text-anchor="end" transform="translate(600,14)" font-family="sans-serif" font-size="10px" fill="#000" opacity="1">2020</text></g><g class="mark-rule role-axis-domain" pointer-events="none"><line transform="translate(0,0)" x2="600" y2="0" stroke="#888" stroke-width="1" opacity="1"/></g></g><path class="foreground" aria-hidden="true" d="" pointer-events="none" display="none"/></g></g><g class="mark-group role-axis" role="graphics-symbol" aria-roledescription="axis" aria-label="Y-axis for a linear scale with values from 0.0% to 4.5%"><g transform="translate(0.5,0.5)"><path class="background" aria-hidden="true" d="M0,0h0v0h0Z" pointer-events="none"/><g><g class="mark-text role-axis-label" pointer-events="none"><text text-anchor="end" transform="translate(-6,403)" font-family="sans-serif" font-size="10px" fill="#000" opacity="1">0.0%</text><text text-anchor="end" transform="translate(-6,358.55555555555554)" font-family="sans-serif" font-size="10px" fill="#000" opacity="1">0.5%</text><text text-anchor="end" transform="translate(-6,314.11111111111114)" font-family="sans-serif" font-size="10px" fill="#000" opacity="1">1.0%</text><text text-anchor="end" transform="translate(-6,269.6666666666667)" font-family="sans-serif" font-size="10px" fill="#000" opacity="1">1.5%</text><text text-anchor="end" transform="translate(-6,225.22222222222223)" font-family="sans-serif" font-size="10px" fill="#000" opacity="1">2.0%</text><text text-anchor="end" transform="translate(-6,180.77777777777777)" font-family="sans-serif" font-size="10px" fill="#000" opacity="1">2.5%</text><text text-anchor="end" transform="translate(-6,136.33333333333334)" font-family="sans-serif" font-size="10px" fill="#000" opacity="1">3.0%</text><text text-anchor="end" transform="translate(-6,91.88888888888884)" font-family="sans-serif" font-size="10px" fill="#000" opacity="1">3.5%</text><text text-anchor="end" transform="translate(-6,47.44444444444442)" font-family="sans-serif" font-size="10px" fill="#000" opacity="1">4.0%</text><text text-anchor="end" transform="translate(-6,3)" font-family="sans-serif" font-size="10px" fill="#000" opacity="1">4.5%</text></g><g class="mark-rule role-axis-domain" pointer-events="none"><line transform="translate(0,400)" x2="0" y2="-400" stroke="#888" stroke-width="1" opacity="1"/></g></g><path class="foreground" aria-hidden="true" d="" pointer-events="none" display="none"/></g></g><g class="mark-group role-scope pathgroup" role="graphics-object" aria-roledescription="group mark container"><g transform="translate(0,0)"><path class="background" aria-hidden="true" d="M0,0h600v400h-600Z"/><g><g class="mark-line role-mark marks" role="graphics-object" aria-roledescription="line mark container"><path aria-label="Year: 1955; Value: 0.8%; Source: NCSES" role="graphics-symbol" aria-roledescription="line mark" d="M0,327.111L9.225,301.333L18.474,283.556L27.699,271.111L36.923,260.444L46.148,254.222L55.398,249.778L64.622,250.667L73.847,237.333L83.071,234.667L92.321,241.778L101.546,245.333L110.77,249.778L119.995,258.667L129.245,266.667L138.469,275.556L147.694,283.556L156.918,288.889L166.168,296.889L175.393,300.444L184.617,302.222L193.842,304L203.092,305.778L212.316,307.556L221.541,307.556L230.765,306.667L240.015,306.667L249.24,301.333L258.464,298.667L267.689,297.778L276.939,292.444L286.163,294.222L295.388,292.444L304.612,297.778L313.862,304.889L323.087,308.444L332.311,312L341.536,317.333L350.786,321.778L360.01,326.222L369.235,327.111L378.459,329.778L387.709,333.333L396.934,335.111L406.158,338.667L415.383,341.333L424.632,337.778L433.857,336L443.082,334.222L452.306,334.222L461.556,335.111L470.781,336L480.005,335.111L489.23,328.889L498.479,322.667L507.704,325.333L516.929,328L526.153,332.444L535.403,336.889L544.627,340.444L553.852,341.333L563.077,344L572.326,344L581.551,343.111L590.775,343.111L600,337.778" stroke="#e45756" stroke-width="2"/></g></g><path class="foreground" aria-hidden="true" d="" display="none"/></g><g transform="translate(0,0)"><path class="background" aria-hidden="true" d="M0,0h600v400h-600Z"/><g><g class="mark-line role-mark marks" role="graphics-object" aria-roledescription="line mark container"><path aria-label="Year: 1955; Value: 0.6%; Source: NCES (including R&amp;D Plant)" role="graphics-symbol" aria-roledescription="line mark" d="M0,348.488L9.225,342.319L18.474,326.398L27.699,318.683L36.923,287.434L46.148,275.733L55.398,261.311L64.622,250.613L73.847,230.157L83.071,218.671L92.321,231.702L101.546,236.581L110.77,233.313L119.995,253.806L129.245,266.078L138.469,274.751L147.694,283.928L156.918,289.66L166.168,298.845L175.393,303.258L184.617,303.943L193.842,304.506L203.092,303.688L212.316,306.781L221.541,307.948L230.765,311.458L240.015,308.6L249.24,305.653L258.464,309.188L267.689,305.265L276.939,300.218L286.163,298.376L295.388,298.706L304.612,302.697L313.862,303.931L323.087,305.584L332.311,306.496L341.536,308.996L350.786,311.432L360.01,318.529L369.235,321.329L378.459,325.692L387.709,327.342L396.934,329.638L406.158,330.293L415.383,328.808L424.632,323.701L433.857,317.184L443.082,310.852L452.306,310.403L461.556,312.434L470.781,313.882L480.005,314.289L489.23,312.14L498.479,300.324L507.704,313.511L516.929,318.991L526.153,322.19L535.403,331.269L544.627,332.206L553.852,332.823L563.077,329.522L572.326,343.12L581.551,338.323L590.775,338.586L600,330.419" stroke="#f58518" stroke-width="2"/></g></g><path class="foreground" aria-hidden="true" d="" display="none"/></g><g transform="translate(0,0)"><path class="background" aria-hidden="true" d="M0,0h600v400h-600Z"/><g><g class="mark-line role-mark marks" role="graphics-object" aria-roledescription="line mark container"><path aria-label="Year: 1960; Value: 3.7%; Source: AAAS" role="graphics-symbol" aria-roledescription="line mark" d="M46.148,74.418L55.398,48.105L64.622,59.193L73.847,33.921L83.071,13.752L92.321,41.432L101.546,70.62L110.77,80.219L119.995,114.235L129.245,129.821L138.469,139.951L147.694,161.152L156.918,178.318L166.168,205.431L175.393,222.25L184.617,236.456L193.842,247.693L203.092,261.233L212.316,269.214L221.541,282.602L230.765,293.295L240.015,304.931L249.24,307.224L258.464,307.541L267.689,311.059L276.939,311.91L286.163,315.374L295.388,320.177L304.612,324.461L313.862,328.783L323.087,332.772L332.311,337.499L341.536,340.153L350.786,343.752L360.01,347.915L369.235,349.969L378.459,353.976L387.709,357.201L396.934,358.904L406.158,360.404L415.383,361.331L424.632,357.831L433.857,356.598L443.082,357.333L452.306,360.554L461.556,362.362L470.781,363.774L480.005,364.264L489.23,364.355L498.479,362.412L507.704,361.817L516.929,361.968L526.153,365.096L535.403,367.537L544.627,368.557L553.852,369.978L563.077,371.975L572.326,372.937L581.551,372.184L590.775,371.716L600,370.092" stroke="#4c78a8" stroke-width="2"/></g></g><path class="foreground" aria-hidden="true" d="" display="none"/></g></g><g class="mark-group role-legend" role="graphics-symbol" aria-roledescription="legend" aria-label="Symbol legend for stroke color with 3 values: AAAS, NCES (including R&amp;D Plant), NCSES"><g transform="translate(-30,-20)"><path class="background" aria-hidden="true" d="M0,0h259v11h-259Z" pointer-events="none"/><g><g class="mark-group role-legend-entry"><g transform="translate(0,0)"><path class="background" aria-hidden="true" d="M0,0h0v0h0Z" pointer-events="none"/><g><g class="mark-group role-scope" role="graphics-object" aria-roledescription="group mark container"><g transform="translate(0,0)"><path class="background" aria-hidden="true" d="M0,0h42.6796875v11h-42.6796875Z" pointer-events="none" opacity="1"/><g><g class="mark-symbol role-legend-symbol" pointer-events="none"><path transform="translate(6,6)" d="M-5,0L5,0" stroke="#4c78a8" stroke-width="1.5" opacity="1"/></g><g class="mark-text role-legend-label" pointer-events="none"><text text-anchor="start" transform="translate(16,9)" font-family="sans-serif" font-size="10px" fill="#000" opacity="1">AAAS</text></g></g><path class="foreground" aria-hidden="true" d="" pointer-events="none" display="none"/></g><g transform="translate(54,0)"><path class="background" aria-hidden="true" d="M0,0h142.1572265625v11h-142.1572265625Z" pointer-events="none" opacity="1"/><g><g class="mark-symbol role-legend-symbol" pointer-events="none"><path transform="translate(6,6)" d="M-5,0L5,0" stroke="#f58518" stroke-width="1.5" opacity="1"/></g><g class="mark-text role-legend-label" pointer-events="none"><text text-anchor="start" transform="translate(16,9)" font-family="sans-serif" font-size="10px" fill="#000" opacity="1">NCES (including R&amp;…</text></g></g><path class="foreground" aria-hidden="true" d="" pointer-events="none" display="none"/></g><g transform="translate(208,0)"><path class="background" aria-hidden="true" d="M0,0h50.453125v11h-50.453125Z" pointer-events="none" opacity="1"/><g><g class="mark-symbol role-legend-symbol" pointer-events="none"><path transform="translate(6,6)" d="M-5,0L5,0" stroke="#e45756" stroke-width="1.5" opacity="1"/></g><g class="mark-text role-legend-label" pointer-events="none"><text text-anchor="start" transform="translate(16,9)" font-family="sans-serif" font-size="10px" fill="#000" opacity="1">NCSES</text></g></g><path class="foreground" aria-hidden="true" d="" pointer-events="none" display="none"/></g></g></g><path class="foreground" aria-hidden="true" d="" pointer-events="none" display="none"/></g></g></g><path class="foreground" aria-hidden="true" d="" pointer-events="none" display="none"/></g></g><g class="mark-group role-title"><g transform="translate(-30,-54)"><path class="background" aria-hidden="true" d="M0,0h0v0h0Z" pointer-events="none"/><g><g class="mark-text role-title-text" role="graphics-symbol" aria-roledescription="title" aria-label="Title text 'US Federal R&amp;D Spending as a Percentage of GDP'" pointer-events="none"><text text-anchor="start" transform="translate(0,13)" font-family="Arial" font-size="16px" font-weight="bold" fill="#000" opacity="1">US Federal R&amp;D Spending as a Percentage of GDP</text></g><g class="mark-text role-title-subtitle" role="graphics-symbol" aria-roledescription="subtitle" aria-label="Subtitle text 'Source: AAAS, NCSES'" pointer-events="none"><text text-anchor="start" transform="translate(0,28)" font-family="sans-serif" font-size="12px" fill="#000" opacity="1">Source: AAAS, NCSES</text></g></g><path class="foreground" aria-hidden="true" d="" pointer-events="none" display="none"/></g></g></g><path class="foreground" aria-hidden="true" d="" display="none"/></g></g></g></svg>